<?xml version="1.0" encoding="utf-8"?>
<!-- Generator: Adobe Illustrator 24.1.0, SVG Export Plug-In . SVG Version: 6.00 Build 0)  -->
<svg version="1.1" id="Layer_1" xmlns="http://www.w3.org/2000/svg" xmlns:xlink="http://www.w3.org/1999/xlink" x="0px" y="0px"
	 viewBox="0 0 33 33" style="enable-background:new 0 0 33 33;" xml:space="preserve">
<style type="text/css">
	.st0{opacity:0.99;fill:#6A6B6A;}
	.st1{fill:#2B89C9;}
</style>
<path class="st0" d="M29.93,15.31c-0.05,0-0.11-0.01-0.17-0.01h-4.77c-0.06,0-0.12,0.01-0.18,0.02c-0.31-0.01-0.62-0.03-0.93-0.01
	c-0.2,0.01-0.27-0.06-0.3-0.26c-0.29-1.73-0.58-3.47-0.86-5.21c-0.03-0.14-0.08-0.19-0.22-0.18c-0.57,0-1.14,0.01-1.71,0
	c-0.18-0.01-0.25,0.05-0.3,0.21c-0.84,2.45-1.68,4.89-2.51,7.34c-0.03,0.1-0.04,0.24,0,0.34c0.29,0.91,0.59,1.81,0.88,2.71
	c0.02,0.05,0.05,0.11,0.08,0.2c0.82-2.08,1.63-4.13,2.43-6.17c0.06,0.04,0.06,0.08,0.07,0.11c0.15,0.84,0.3,1.68,0.44,2.53
	c0.01,0.07,0.01,0.13,0.02,0.2c0.17,1,0.34,1.99,0.51,2.99c0.1,0.61,0.2,1.23,0.32,1.84c0.01,0.07,0.08,0.19,0.13,0.19
	c0.62,0.01,1.25,0.01,1.92,0.01c-0.26-1.55-0.51-3.06-0.77-4.6h3.7c-0.47,3.35-2.04,6.02-4.96,7.69c-4.54,2.6-8.78,1.88-12.64-1.44
	l-1.54,1.54c3.45,3.53,9.29,4.9,14.42,2.35C28.31,25.05,30.42,19.59,29.93,15.31z"/>
<path class="st1" d="M25.86,7.1c-0.88-0.78-1.83-1.46-2.9-1.95c-0.07-0.04-0.13-0.08-0.2-0.11c-2.21-1.02-4.52-1.44-6.93-1.08
	c-4.8,0.71-8.16,3.35-10.09,7.8c-0.42,0.98-0.69,2.01-0.79,3.08c-0.15,0.9-0.15,1.8-0.07,2.73c1.99,0,3.97,0,5.97,0
	c-0.27,1.55-0.53,3.07-0.8,4.61c0.63,0,1.23-0.01,1.83,0c0.18,0,0.23-0.06,0.26-0.22c0.23-1.38,0.48-2.75,0.71-4.13
	c0.08-0.45,0.12-0.9,0.2-1.35c0.1-0.59,0.21-1.17,0.31-1.76c0.02-0.13,0.06-0.27,0.09-0.4c0.02,0,0.04,0,0.06,0
	c0.04,0.1,0.08,0.19,0.11,0.29c0.91,2.42,1.83,4.85,2.73,7.28c0.09,0.23,0.2,0.31,0.44,0.29c0.45-0.02,0.9-0.01,1.35-0.01
	c0.3,0,0.31-0.01,0.21-0.29c-0.56-1.7-1.11-3.39-1.67-5.09c-0.76-2.3-1.52-4.6-2.27-6.91c-0.05-0.17-0.13-0.22-0.3-0.22
	c-0.55,0.01-1.11,0-1.66,0c-0.07,0-0.15,0-0.22,0c-0.02,0.11-0.04,0.19-0.05,0.28c-0.3,1.71-0.59,3.41-0.88,5.12
	c-0.03,0.18-0.09,0.25-0.29,0.25c-1.21-0.01-2.42,0-3.63-0.01c-0.07,0-0.15-0.01-0.27-0.01c0.12-0.6,0.24-1.17,0.36-1.74
	c0.03-0.07,0.06-0.14,0.08-0.21c0.79-2.45,2.28-4.37,4.47-5.73C13.82,6.5,15.79,6,17.91,6.1c0.91,0.04,1.79,0.22,2.66,0.47
	c0.04,0.02,0.08,0.04,0.13,0.05c1.23,0.42,2.36,1.04,3.35,1.88c0.23,0.19,0.45,0.4,0.67,0.6c0.52-0.53,1.04-1.05,1.57-1.59
	C26.15,7.38,26.01,7.24,25.86,7.1z"/>
</svg>
